<?xml version="1.0" standalone="no"?>
<!DOCTYPE svg PUBLIC "-//W3C//DTD SVG 20010904//EN"
 "http://www.w3.org/TR/2001/REC-SVG-20010904/DTD/svg10.dtd">
<svg version="1.0" xmlns="http://www.w3.org/2000/svg"
 width="1000.000000pt" height="1000.000000pt" viewBox="0 0 1000.000000 1000.000000"
 preserveAspectRatio="xMidYMid meet">
<metadata>
Created by potrace 1.11, written by Peter Selinger 2001-2013
</metadata>
<g transform="translate(0.000000,1000.000000) scale(0.100000,-0.100000)"
fill="#000000" stroke="none">
<path d="M3930 9323 c-80 -19 -176 -42 -214 -52 -73 -17 -93 -34 -52 -45 28
-7 24 7 86 -251 23 -93 55 -224 71 -290 17 -66 32 -131 35 -145 3 -14 7 -31 9
-38 3 -7 -4 -20 -15 -29 -30 -26 -24 -36 18 -28 122 22 424 101 465 122 99 49
149 127 142 220 -8 103 -69 178 -156 189 l-50 7 30 31 c79 81 76 200 -6 278
-74 71 -162 78 -363 31z m235 -127 c30 -20 43 -78 24 -113 -7 -13 -26 -31 -42
-40 -42 -21 -219 -65 -227 -56 -7 8 -51 176 -47 179 1 1 47 13 102 26 109 28
153 28 190 4z m94 -315 c29 -16 41 -36 47 -82 5 -39 3 -49 -22 -78 -31 -37
-44 -43 -173 -78 -95 -25 -108 -24 -115 13 -2 10 -12 48 -21 84 -30 115 -35
104 53 125 42 10 91 21 107 23 17 2 32 5 34 7 6 6 71 -4 90 -14z"/>
<path d="M4719 9320 c-20 -5 -21 -7 -6 -22 14 -14 17 -51 20 -264 2 -232 4
-252 24 -290 29 -54 83 -100 135 -116 24 -7 86 -12 138 -12 108 1 166 20 216
73 55 58 62 101 64 355 0 126 5 237 10 247 6 10 10 22 10 26 0 10 -175 11
-185 1 -4 -3 0 -17 8 -30 18 -30 18 -461 -1 -495 -49 -88 -218 -87 -261 3 -20
40 -23 480 -4 496 30 25 12 33 -66 33 -44 0 -90 -2 -102 -5z"/>
<path d="M5670 9272 c0 -4 5 -13 11 -19 8 -8 -7 -91 -57 -309 -58 -250 -72
-301 -93 -320 l-23 -22 96 -22 c54 -12 100 -19 103 -16 3 3 2 13 -2 23 -5 10
-8 21 -7 24 1 4 3 17 6 30 15 84 40 189 45 189 3 -1 31 -7 61 -14 l54 -12 42
-129 c39 -119 41 -130 26 -142 -15 -11 -15 -14 -3 -22 26 -17 159 -44 178 -36
12 5 14 9 6 12 -11 4 -103 266 -103 292 0 6 14 11 31 11 17 0 46 7 65 16 93
44 136 142 109 247 -22 86 -75 123 -233 162 -53 13 -110 26 -127 29 -16 3 -55
13 -85 21 -61 16 -100 19 -100 7z m256 -155 c136 -34 174 -67 160 -140 -9 -50
-45 -79 -98 -80 -42 0 -196 31 -210 42 -4 4 0 35 8 71 9 36 18 76 20 89 6 29
12 41 22 41 4 0 48 -11 98 -23z"/>
<path d="M6720 8939 c0 -22 -21 -45 -307 -338 -95 -96 -173 -177 -173 -178 0
-7 139 -70 144 -65 3 3 6 15 6 27 0 12 22 43 51 73 49 49 53 51 78 38 14 -7
61 -30 104 -51 59 -28 77 -41 73 -53 -3 -10 -6 -39 -8 -66 -1 -37 -8 -54 -27
-72 l-25 -23 88 -41 c89 -42 114 -44 96 -10 -6 11 -8 32 -6 47 4 27 9 73 22
201 3 31 7 73 9 92 2 19 7 64 10 100 15 168 25 223 42 242 14 16 10 20 -68 58
-95 46 -109 48 -109 19z m46 -136 c-2 -10 -14 -76 -27 -148 -12 -71 -26 -134
-30 -138 -7 -9 -149 58 -149 71 0 4 19 27 43 52 23 25 69 75 101 113 32 37 60
67 62 67 1 0 1 -8 0 -17z"/>
<path d="M2672 8612 l-82 -55 19 -21 c16 -17 87 -243 106 -336 2 -8 19 -77 39
-153 20 -76 36 -149 36 -163 0 -34 15 -30 88 19 l63 42 -24 20 c-14 12 -29 41
-37 70 -6 28 -14 57 -16 66 -3 11 24 35 91 79 l95 63 58 -45 c33 -25 57 -52
57 -63 0 -32 22 -27 94 21 69 46 89 74 54 74 -10 0 -124 80 -254 178 -298 225
-289 217 -289 235 0 29 -15 25 -98 -31z m224 -238 c7 -6 26 -23 44 -38 18 -15
30 -30 26 -33 -23 -23 -132 -90 -137 -85 -4 4 -21 54 -39 112 -17 58 -38 125
-46 149 l-14 43 78 -68 c42 -38 82 -74 88 -80z"/>
<path d="M7313 8516 c-169 -55 -287 -222 -279 -394 6 -104 62 -194 162 -258
l51 -32 2 -61 c1 -37 -2 -61 -8 -61 -6 0 -11 -7 -11 -16 0 -14 10 -15 77 -9
89 8 103 13 79 30 -19 15 -39 76 -28 86 4 5 21 10 37 13 107 19 151 42 223
113 50 50 95 129 110 190 13 57 5 158 -16 206 -29 64 -101 138 -167 171 -68
33 -169 43 -232 22z m198 -137 c122 -62 126 -235 9 -356 -43 -44 -112 -83
-147 -83 -17 0 -21 8 -27 47 -7 57 -50 133 -74 133 -16 0 -18 -9 -15 -75 2
-78 -4 -88 -36 -57 -40 39 -54 73 -55 135 0 97 57 192 150 250 63 39 126 42
195 6z"/>
<path d="M5077 8314 c-1 -1 -76 -4 -167 -8 -194 -7 -211 -9 -395 -42 -547 -98
-1025 -314 -1460 -661 -142 -113 -377 -348 -489 -488 -88 -111 -230 -318 -281
-410 -124 -225 -187 -364 -256 -563 -62 -180 -129 -464 -145 -609 -3 -31 -7
-64 -9 -74 -8 -40 -19 -252 -18 -359 0 -119 11 -349 17 -359 2 -3 7 -35 11
-71 3 -36 8 -72 11 -81 3 -10 7 -30 9 -45 2 -16 6 -40 9 -54 3 -14 10 -54 16
-90 26 -148 38 -187 147 -466 202 -521 544 -987 983 -1340 234 -188 475 -332
758 -453 159 -68 419 -152 547 -177 11 -2 43 -8 70 -14 115 -24 193 -36 295
-45 30 -3 79 -8 109 -11 74 -7 371 -7 468 1 138 11 252 27 433 61 130 24 392
107 569 180 432 178 872 496 1176 849 33 38 66 76 72 83 33 35 175 234 236
330 85 135 233 433 286 577 44 121 114 354 127 425 4 25 8 47 9 50 15 64 16
71 34 190 20 135 31 287 33 435 0 97 -10 330 -17 366 -2 10 -6 46 -10 80 -4
35 -8 66 -10 69 -2 3 -6 30 -10 60 -4 30 -9 58 -11 61 -2 4 -6 24 -9 45 -8 51
-59 244 -91 342 -238 727 -749 1367 -1406 1758 -445 264 -938 419 -1433 449
-107 7 -205 11 -208 9z m303 -118 c19 -4 67 -11 105 -17 105 -16 115 -18 175
-29 68 -13 311 -72 308 -75 -2 -1 -59 -5 -128 -9 -69 -3 -141 -9 -160 -12
-121 -18 -217 -39 -303 -65 -97 -30 -286 -119 -308 -145 -9 -12 -17 -9 -48 15
-150 119 -393 190 -705 207 -61 4 -112 8 -114 9 -3 3 219 57 328 80 3 1 28 5
55 10 28 4 57 10 65 12 23 5 79 12 145 19 33 4 62 8 64 10 6 6 483 -4 521 -10z
m-995 -260 c279 -17 454 -72 612 -190 l62 -47 48 34 c201 143 494 219 823 212
186 -4 231 -8 346 -35 141 -33 390 -149 574 -267 72 -47 183 -126 200 -143 3
-3 34 -30 70 -60 165 -139 380 -383 434 -495 96 -196 158 -419 182 -645 7 -71
7 -284 -1 -340 -2 -19 -7 -57 -11 -85 -7 -56 -6 -50 -29 -158 -24 -117 -103
-339 -126 -352 -6 -4 -65 -7 -132 -7 -139 0 -134 -6 -86 93 66 135 127 356
144 519 6 64 7 273 1 310 -2 14 -7 48 -10 75 -31 271 -160 571 -340 794 -329
406 -797 627 -1311 616 -71 -2 -152 -6 -180 -10 -175 -24 -347 -79 -500 -159
l-100 -53 -105 52 c-87 42 -265 109 -322 119 -7 1 -38 8 -68 14 -158 34 -406
46 -580 28 -161 -17 -353 -74 -520 -154 -269 -128 -535 -375 -693 -643 -152
-257 -222 -518 -222 -824 1 -259 45 -466 150 -690 150 -322 422 -608 726 -760
l69 -35 0 -130 0 -129 -37 16 c-341 142 -644 395 -851 712 -136 208 -244 487
-278 718 -3 26 -9 57 -11 68 -3 11 -6 97 -8 190 -2 154 2 234 20 335 3 19 8
47 10 62 23 132 52 196 166 363 316 465 734 810 1215 1004 141 57 184 65 419
77 72 3 132 8 134 10 2 2 7 2 10 0 3 -2 51 -7 106 -10z m-30 -281 c204 -28
429 -95 597 -179 58 -29 110 -50 115 -46 19 18 165 90 251 124 260 104 537
135 807 91 11 -1 58 -12 105 -23 443 -106 831 -423 1025 -839 199 -423 194
-894 -13 -1323 -25 -52 -46 -96 -48 -98 -1 -2 -46 -3 -100 -3 -162 -1 -149 -8
-108 56 106 166 184 369 211 548 9 58 8 218 -1 302 -15 136 -73 322 -139 445
-113 211 -297 410 -497 537 -142 91 -320 162 -500 200 -119 25 -383 25 -495 0
-157 -36 -316 -94 -457 -168 l-58 -30 -32 25 c-31 22 -106 63 -188 99 -58 26
-209 67 -305 82 -89 14 -393 14 -460 1 -16 -4 -55 -11 -85 -17 -132 -25 -300
-90 -427 -165 -780 -461 -885 -1562 -206 -2174 59 -53 83 -73 117 -95 25 -17
26 -20 26 -126 0 -60 -4 -109 -8 -109 -17 0 -179 104 -257 165 -313 245 -529
630 -573 1020 -8 77 -8 261 0 345 45 441 309 871 684 1113 215 139 444 222
672 243 37 4 68 8 70 9 6 5 227 -3 277 -10z m148 -300 c173 -17 347 -82 483
-181 l70 -51 24 19 c116 94 371 193 552 215 153 19 364 5 523 -33 459 -111
864 -572 935 -1064 11 -77 14 -231 5 -285 -35 -203 -97 -359 -214 -532 -49
-72 -60 -83 -86 -84 -36 -1 -233 -1 -256 0 -11 1 -2 16 29 49 162 171 269 390
299 613 15 111 7 310 -16 387 -5 18 -10 36 -10 40 -7 78 -107 278 -195 389
-162 204 -362 315 -646 359 -77 12 -284 12 -335 1 -11 -3 -40 -8 -65 -12 -128
-21 -346 -118 -475 -210 l-72 -52 -39 34 c-66 57 -198 141 -275 177 -134 61
-226 80 -389 80 -171 1 -265 -16 -415 -75 -356 -139 -597 -402 -686 -747 -28
-105 -33 -333 -10 -447 62 -314 280 -602 564 -746 80 -41 229 -90 289 -94 290
-24 566 -181 752 -429 109 -147 169 -286 211 -492 3 -16 9 -80 12 -141 32
-610 -392 -1167 -1120 -1467 -85 -36 -337 -126 -351 -126 -3 0 -6 584 -6 1298
l-1 1297 -56 35 c-79 49 -259 231 -318 320 -114 174 -183 356 -210 555 -7 49
-8 282 -2 292 3 5 8 31 11 58 31 236 164 494 350 680 228 226 506 349 843 371
54 3 99 7 100 8 4 3 128 -2 196 -9z m-22 -255 c30 -6 66 -13 82 -15 121 -22
324 -134 445 -245 l44 -40 26 20 c274 212 503 293 802 285 406 -10 717 -238
844 -617 39 -115 50 -189 50 -318 -1 -271 -94 -496 -284 -692 l-96 -98 29 -46
c53 -86 106 -255 133 -424 12 -80 12 -302 0 -391 -18 -137 -83 -327 -159 -469
-279 -523 -924 -962 -1619 -1104 -38 -7 -68 -10 -68 -7 0 4 16 23 36 42 19 18
59 63 88 99 183 225 281 443 324 720 9 61 9 312 -1 381 -23 168 -101 367 -201
518 -199 299 -485 472 -836 506 -216 20 -472 178 -616 380 -50 71 -114 197
-137 270 -51 160 -57 370 -17 519 97 359 400 635 787 716 99 20 263 25 344 10z
m3377 -625 c75 -150 140 -315 187 -469 43 -145 69 -245 64 -251 -4 -4 -149 -7
-253 -6 l-48 1 7 46 c3 25 8 56 11 67 15 76 22 346 11 442 -16 132 -21 165
-37 233 -10 41 -14 70 -10 65 5 -4 35 -62 68 -128z m-5654 -351 c0 -150 9
-251 39 -405 14 -71 61 -225 92 -304 154 -382 408 -696 748 -925 79 -53 288
-163 365 -192 l42 -16 0 -156 c0 -86 -2 -156 -5 -156 -26 0 -266 115 -370 178
-445 268 -787 682 -964 1168 -40 109 -77 250 -99 372 -18 98 -18 104 0 174 42
163 132 428 147 428 3 0 6 -75 5 -166z m5930 -493 c5 -15 19 -117 32 -223 5
-42 4 -48 -12 -49 -153 -6 -464 -2 -462 6 2 6 23 72 48 147 l45 137 172 -1
c150 -1 173 -3 177 -17z m-6062 -386 c115 -309 293 -581 537 -825 243 -241
498 -411 799 -530 l82 -33 0 -113 c0 -63 -1 -114 -3 -114 -2 0 -35 11 -73 24
-589 205 -1098 643 -1413 1218 l-43 78 -1 122 c-1 103 8 276 19 378 1 14 3 34
4 45 1 11 13 -16 26 -60 14 -44 43 -129 66 -190z m6103 4 c6 -9 8 -270 2 -276
-3 -2 -347 -5 -765 -6 l-760 -2 -12 55 c-6 30 -22 92 -36 136 -13 45 -24 86
-24 91 0 12 1588 14 1595 2z m-10 -457 c-4 -41 -8 -82 -10 -91 -1 -9 -6 -40
-10 -68 -4 -29 -10 -53 -13 -54 -41 -3 -1454 0 -1458 4 -4 3 -8 245 -5 279 1
3 339 6 752 6 l751 0 -7 -76z m-6042 -304 c326 -437 764 -760 1267 -934 l95
-33 3 -119 3 -120 -58 17 c-331 101 -668 276 -942 489 -120 94 -154 124 -281
252 l-105 105 -28 100 c-47 174 -73 293 -83 385 l-6 55 26 -42 c13 -24 63 -94
109 -155z m5979 -14 c9 -3 15 -10 13 -17 -3 -7 -6 -23 -9 -37 -2 -14 -16 -71
-31 -128 l-28 -102 -737 0 -738 0 20 52 c10 28 28 90 40 137 11 47 22 89 24
92 4 7 1421 9 1446 3z m-92 -391 c0 -3 -23 -64 -51 -134 l-52 -129 -763 0
c-420 0 -764 2 -764 5 0 3 15 27 33 53 38 57 49 75 87 151 l30 58 740 1 c407
0 740 -2 740 -5z m-5670 -303 c24 -27 332 -250 345 -250 2 0 28 -15 57 -34
141 -90 441 -223 646 -286 l102 -32 0 -94 c0 -78 -3 -94 -15 -94 -26 0 -334
105 -440 150 -192 81 -388 189 -571 313 -44 30 -70 58 -96 102 -38 63 -168
328 -168 340 0 6 121 -93 140 -115z m5510 -70 c0 -5 -8 -24 -18 -42 -10 -18
-35 -63 -56 -100 l-38 -68 -821 0 -820 0 24 26 c13 14 57 60 97 102 39 42 72
80 72 84 0 5 351 8 780 8 497 0 780 -4 780 -10z m-199 -342 c-11 -18 -47 -70
-80 -114 l-60 -82 -926 0 c-546 0 -925 4 -925 9 0 5 5 9 10 9 13 0 176 109
250 167 l55 43 848 0 849 0 -21 -32z m-4836 -240 c170 -84 414 -176 600 -226
l70 -19 3 -98 c2 -86 1 -97 -13 -91 -9 3 -53 15 -98 27 -104 26 -324 100 -430
145 -77 32 -87 40 -177 140 -82 91 -210 250 -210 260 0 2 35 -18 78 -43 42
-25 122 -68 177 -95z m4598 -61 c12 -4 -134 -164 -158 -173 -26 -10 -2275 -11
-2268 -2 2 5 10 8 17 8 37 0 419 144 448 169 7 6 1944 4 1961 -2z m-275 -286
c3 -2 -66 -61 -146 -126 l-73 -58 -1329 0 c-732 0 -1332 2 -1335 5 -3 2 14 15
38 28 53 30 214 137 220 147 4 6 2613 10 2625 4z m-3868 -137 c63 -19 126 -37
140 -39 87 -16 80 -7 80 -101 0 -65 -3 -83 -12 -78 -95 55 -312 208 -358 251
l-25 24 30 -12 c17 -6 82 -27 145 -45z m3490 -153 c0 -6 -202 -123 -277 -160
-42 -21 -44 -21 -1420 -21 -1295 1 -1380 2 -1411 18 l-33 18 68 23 c37 13 79
28 93 33 14 6 75 29 135 52 l110 42 1368 1 c752 0 1367 -3 1367 -6z m-577
-296 c-60 -26 -284 -96 -386 -120 -97 -23 -121 -28 -192 -40 -16 -3 -41 -7
-55 -10 -60 -11 -176 -25 -250 -30 -72 -5 -380 -5 -440 -1 -76 6 -179 16 -212
22 -16 2 -43 6 -60 9 -103 17 -256 50 -348 77 -112 32 -300 95 -308 103 -3 3
510 5 1139 5 986 -1 1140 -3 1112 -15z"/>
<path d="M4277 6944 c-1 -1 -28 -5 -60 -8 -178 -21 -375 -130 -496 -275 -244
-294 -248 -706 -10 -1007 146 -184 357 -288 609 -298 19 -1 71 39 205 153 99
85 182 157 185 161 15 18 191 162 193 159 2 -2 9 -20 16 -39 8 -19 19 -48 26
-65 7 -16 34 -85 60 -153 26 -67 51 -124 54 -127 17 -10 32 21 101 195 39 102
74 187 75 189 2 2 68 -52 147 -120 172 -149 197 -171 212 -184 6 -6 53 -46
104 -89 101 -85 106 -87 217 -72 212 28 426 158 545 331 135 197 177 460 109
682 -87 280 -307 484 -593 549 -11 3 -55 8 -96 12 -228 21 -420 -62 -660 -285
-86 -80 -107 -93 -149 -93 -48 0 -72 14 -156 94 -147 140 -277 222 -413 262
-67 19 -214 37 -225 28z m240 -139 c62 -24 178 -93 238 -142 17 -14 63 -57
103 -95 82 -79 143 -110 211 -109 73 0 113 21 203 103 161 148 251 210 363
249 225 79 510 -2 685 -195 291 -322 221 -823 -148 -1053 -83 -52 -200 -92
-287 -99 l-60 -5 -245 212 c-135 116 -298 262 -364 323 -133 125 -140 130
-160 119 -12 -7 -179 -158 -225 -204 -9 -9 -68 -60 -131 -114 -63 -55 -120
-104 -126 -110 -7 -5 -33 -28 -59 -50 -26 -22 -53 -45 -59 -50 -6 -6 -41 -37
-79 -69 l-67 -58 -64 6 c-85 8 -192 45 -274 95 -263 159 -393 475 -313 764 82
299 317 491 636 519 53 5 156 -12 222 -37z"/>
<path d="M4198 6469 c-79 -18 -160 -87 -199 -167 -32 -66 -32 -177 0 -247 76
-169 287 -228 443 -125 82 54 127 141 128 246 0 118 -60 218 -163 269 -58 28
-149 39 -209 24z"/>
<path d="M5753 6461 c-73 -25 -136 -80 -170 -149 -37 -76 -39 -191 -4 -263
109 -226 432 -226 543 0 19 37 23 62 23 131 -1 75 -4 91 -30 139 -32 58 -91
112 -149 136 -58 24 -152 27 -213 6z"/>
<path d="M2142 8196 c-40 -39 -72 -74 -72 -78 0 -5 12 -8 27 -8 19 0 43 -18
95 -72 38 -40 117 -121 174 -180 57 -58 105 -111 105 -117 1 -6 2 -17 3 -23 4
-22 -28 -69 -54 -83 -26 -13 -57 -13 -102 0 -37 10 -36 0 7 -85 37 -73 49 -84
58 -50 3 11 13 20 24 20 29 1 105 39 136 68 66 62 87 157 51 226 -10 19 -62
79 -113 133 -263 272 -260 269 -255 290 11 40 -12 29 -84 -41z"/>
<path d="M8075 8020 c-3 -5 -4 -14 -1 -18 6 -11 -15 -34 -75 -84 -248 -205
-292 -244 -316 -286 -58 -99 -25 -222 89 -336 94 -93 178 -114 278 -69 25 12
122 84 215 162 96 79 179 141 191 141 11 0 23 3 27 6 9 9 -113 155 -124 148
-5 -3 -9 -13 -9 -22 0 -16 -65 -72 -277 -244 -51 -41 -96 -70 -117 -73 -66
-13 -132 39 -162 124 -10 29 -10 42 2 69 16 40 11 35 164 161 69 56 135 111
147 121 39 34 72 52 82 46 5 -4 12 -2 16 4 5 7 -110 160 -121 160 -1 0 -6 -4
-9 -10z"/>
<path d="M1686 7703 c-30 -43 -53 -80 -51 -81 2 -2 16 -5 32 -6 18 -1 95 -50
208 -130 207 -145 228 -172 206 -246 -15 -49 -77 -115 -116 -122 -48 -10 -86
10 -270 140 -131 93 -181 134 -183 150 -2 13 -7 22 -12 20 -5 -2 -33 -37 -63
-79 -40 -55 -52 -80 -44 -88 7 -7 14 -7 23 0 9 7 64 -27 201 -123 196 -138
257 -168 325 -162 91 9 186 90 242 206 41 84 44 146 11 214 -29 60 -71 94
-318 265 -67 46 -110 82 -113 97 -4 12 -10 22 -15 22 -5 0 -33 -35 -63 -77z"/>
<path d="M8649 7236 c-11 -22 -72 -57 -285 -166 -179 -92 -275 -136 -284 -130
-7 4 -19 6 -26 3 -9 -3 21 -70 98 -219 81 -158 108 -221 104 -238 -3 -13 -3
-26 1 -29 9 -10 164 74 160 87 -2 6 -11 10 -19 8 -8 -1 -22 6 -30 15 -17 21
-138 251 -138 264 0 9 160 93 165 87 1 -2 22 -41 45 -88 31 -61 40 -88 33
-100 -6 -8 -8 -21 -6 -27 6 -18 163 64 163 84 0 9 -6 13 -14 10 -8 -3 -21 2
-29 11 -14 16 -87 156 -87 166 0 6 141 78 145 74 1 -2 34 -64 73 -138 50 -97
68 -140 62 -150 -6 -8 -10 -23 -10 -32 0 -15 13 -11 80 25 44 23 80 47 80 52
0 6 -10 15 -22 20 -15 7 -55 75 -122 205 -134 259 -121 239 -137 206z"/>
<path d="M1253 6890 c-67 -30 -99 -81 -184 -289 -44 -107 -79 -196 -79 -198 0
-2 15 -1 33 2 29 5 198 -59 584 -222 6 -2 13 -14 16 -25 9 -31 21 -16 52 64
15 40 32 78 37 85 12 15 -7 26 -32 18 -12 -4 -60 10 -124 36 l-105 42 19 50
c24 63 27 65 75 72 22 3 78 13 125 21 105 17 100 17 100 -2 0 -9 7 -14 16 -12
14 3 57 89 79 157 7 22 5 23 -16 17 -30 -9 -177 -34 -244 -42 -27 -4 -53 -8
-57 -11 -5 -2 -8 16 -8 42 0 57 -22 110 -62 152 -54 56 -154 75 -225 43z m128
-137 c35 -21 52 -59 44 -101 -6 -37 -62 -183 -75 -196 -9 -9 -190 62 -190 75
0 26 83 197 105 217 31 26 76 29 116 5z"/>
<path d="M9003 6450 c-6 -23 -20 -28 -293 -114 -314 -98 -308 -97 -322 -82 -7
7 -18 11 -25 9 -8 -3 -1 -35 21 -100 30 -91 56 -130 56 -85 0 12 10 24 28 30
32 12 162 55 177 58 6 1 91 28 190 60 180 57 213 64 224 45 4 -5 11 -7 17 -3
8 5 1 39 -19 105 -30 95 -44 116 -54 77z"/>
<path d="M1051 6029 c-52 -17 -75 -32 -120 -77 -70 -71 -95 -135 -96 -242 0
-66 4 -84 33 -143 51 -103 137 -163 267 -186 235 -41 416 103 418 334 1 119
-60 223 -163 279 -108 59 -225 71 -339 35z m243 -140 c62 -24 98 -55 123 -105
39 -80 19 -176 -48 -227 -92 -70 -259 -59 -352 22 -44 39 -67 87 -67 140 0
154 168 237 344 170z"/>
<path d="M9154 5916 c-6 -15 -52 -25 -189 -41 -27 -3 -61 -7 -75 -9 -29 -5
-95 -13 -165 -22 -27 -3 -61 -7 -75 -9 -112 -16 -117 -16 -131 -3 -30 31 -36
10 -23 -88 7 -52 14 -98 17 -100 3 -3 13 3 23 14 18 18 40 23 159 37 28 4 58
9 68 11 11 4 17 0 18 -13 0 -10 2 -25 4 -33 4 -23 7 -54 6 -67 0 -6 -47 -48
-103 -92 -71 -58 -106 -80 -119 -76 -30 10 -37 -2 -29 -47 5 -24 11 -63 14
-87 3 -24 8 -47 11 -49 3 -3 20 8 38 25 65 62 221 177 224 167 7 -20 50 -73
74 -92 78 -61 196 -53 270 18 57 55 70 127 48 275 -6 39 -12 84 -14 100 -7 70
-18 150 -20 164 -2 9 -4 19 -4 24 -2 13 -21 8 -27 -7z m-46 -270 c17 -150 5
-186 -66 -206 -46 -12 -98 9 -112 46 -24 63 -48 233 -33 235 4 0 17 2 28 4 11
3 49 7 85 11 36 3 67 8 69 10 11 11 20 -18 29 -100z"/>
<path d="M1317 5170 c-30 -28 -66 -59 -81 -71 -30 -23 -25 -43 8 -35 33 8 81
-27 105 -78 54 -110 10 -240 -99 -296 -120 -61 -308 -53 -387 18 -90 80 -98
247 -15 313 14 11 31 18 39 15 7 -3 15 -1 18 4 7 11 -190 112 -199 103 -3 -3
-1 -13 3 -22 6 -11 1 -33 -15 -68 -39 -80 -50 -152 -37 -227 37 -216 197 -341
431 -338 174 2 319 84 388 219 27 54 29 66 29 168 0 98 -3 116 -26 165 -15 30
-43 73 -62 95 -27 29 -35 46 -30 63 8 34 -11 27 -70 -28z"/>
<path d="M8567 5093 c-3 -5 -8 -41 -11 -82 l-6 -73 30 7 c21 5 47 -1 91 -21
l62 -28 -7 -85 c-3 -47 -6 -98 -6 -113 0 -29 5 -26 -131 -64 -9 -3 -23 2 -31
10 -18 18 -37 7 -36 -19 1 -11 -2 -53 -6 -92 -7 -70 -2 -85 21 -62 5 5 59 23
119 39 432 113 511 131 542 125 28 -5 32 -3 33 17 1 13 3 37 5 53 2 17 5 52 7
78 4 48 4 49 -22 44 -30 -6 -51 2 -426 173 -110 50 -205 94 -211 96 -7 3 -14
2 -17 -3z m420 -295 c73 -28 131 -53 129 -55 -3 -4 -27 -9 -86 -19 -19 -3 -67
-12 -107 -20 -119 -23 -115 -26 -107 59 4 39 7 78 7 85 0 8 7 10 16 7 9 -3 76
-29 148 -57z"/>
<path d="M1182 4100 c-63 -15 -105 -74 -97 -137 9 -71 58 -113 133 -113 34 0
49 6 78 33 68 62 54 166 -30 207 -23 11 -44 20 -47 19 -2 -1 -19 -5 -37 -9z"/>
<path d="M8713 4099 c-99 -29 -119 -175 -31 -229 84 -51 182 -6 195 89 13 94
-72 167 -164 140z"/>
<path d="M8246 3524 c-10 -27 -7 -62 11 -99 17 -35 32 -45 34 -22 6 47 -15
137 -31 137 -4 0 -11 -7 -14 -16z"/>
<path d="M8334 3416 c-24 -51 -44 -105 -44 -119 0 -24 4 -26 35 -25 47 2 197
-74 247 -124 21 -21 42 -38 48 -38 20 0 114 161 124 213 3 16 -2 31 -14 42
-17 16 -19 15 -29 -4 -6 -11 -11 -27 -11 -35 0 -28 -32 -96 -50 -106 -22 -12
-82 4 -104 28 -15 18 -14 21 13 62 32 48 31 62 -5 79 -39 17 -53 13 -60 -16
-9 -36 -33 -73 -48 -73 -6 0 -27 13 -46 28 -33 28 -33 30 -21 61 8 17 27 48
42 68 32 39 30 53 -7 53 -22 0 -31 -12 -70 -94z"/>
<path d="M1633 3461 c-41 -34 -215 -125 -270 -142 -56 -16 -55 -29 3 -138 57
-107 65 -115 98 -107 34 8 33 26 -4 61 -33 32 -64 90 -57 109 9 22 218 127
280 140 30 7 35 28 16 70 -17 36 -30 37 -66 7z"/>
<path d="M8080 2988 c-33 -35 -120 -168 -120 -183 0 -7 14 -18 30 -24 44 -15
178 -109 226 -158 45 -47 63 -52 87 -25 27 29 20 50 -22 72 -35 17 -81 63 -81
79 0 4 14 21 30 39 35 39 38 57 11 72 -34 17 -49 11 -72 -30 -12 -21 -28 -41
-36 -44 -18 -7 -83 51 -83 75 0 10 20 40 45 66 31 32 43 52 39 65 -7 24 -29
23 -54 -4z"/>
<path d="M1933 2952 c-21 -37 -195 -162 -250 -180 -40 -14 -44 -17 -38 -41 5
-25 47 -71 64 -71 4 0 14 12 22 27 22 42 220 183 258 183 10 0 24 7 31 15 10
12 8 22 -14 55 -31 47 -51 50 -73 12z"/>
<path d="M2208 2629 c-10 -5 -18 -16 -18 -24 0 -8 -23 -63 -51 -122 -91 -192
-99 -211 -99 -232 0 -39 36 -33 177 27 76 33 162 67 191 76 28 10 52 22 52 27
0 18 -20 49 -32 49 -6 0 -66 -27 -132 -59 -121 -60 -166 -77 -166 -66 0 10 98
198 119 230 27 38 26 63 -1 86 -11 11 -21 19 -22 19 -1 0 -9 -5 -18 -11z"/>
<path d="M7611 2436 c-16 -18 -7 -51 39 -145 42 -86 90 -204 90 -220 0 -6 12
-17 26 -23 22 -10 28 -10 40 6 11 16 9 25 -12 67 -29 55 -26 68 31 117 38 34
53 33 110 -4 23 -15 27 -15 51 0 46 31 29 54 -76 100 -52 24 -128 59 -169 79
-78 40 -112 45 -130 23z m136 -101 c34 -20 63 -38 63 -41 0 -13 -45 -64 -57
-64 -7 0 -20 15 -30 33 -31 57 -52 107 -46 107 3 0 35 -16 70 -35z"/>
<path d="M2694 2148 c-22 -42 -154 -216 -188 -247 -34 -32 -33 -57 5 -76 36
-19 48 -12 73 43 37 81 98 75 88 -9 -15 -120 -14 -137 8 -159 28 -28 38 -17
41 45 1 28 6 71 11 98 9 45 11 47 49 53 81 13 127 94 92 159 -18 35 -127 125
-150 125 -7 0 -20 -15 -29 -32z m115 -95 c23 -28 21 -54 -6 -84 -28 -33 -98
-26 -130 12 -12 15 -11 18 57 97 23 27 44 20 79 -25z"/>
<path d="M7186 2075 c-90 -45 -127 -96 -128 -178 -3 -129 120 -247 240 -232
71 9 153 86 155 147 3 51 -25 47 -50 -6 -26 -53 -60 -78 -112 -82 -77 -5 -158
83 -168 182 -5 51 -4 55 30 89 32 32 40 35 91 35 48 0 56 3 56 19 0 45 -52 56
-114 26z"/>
<path d="M3245 1694 c-49 -48 -112 -104 -140 -126 -58 -47 -68 -66 -47 -90 21
-25 25 -23 70 23 38 40 40 41 75 30 20 -7 48 -21 62 -33 24 -19 26 -25 20 -72
-6 -56 -1 -70 31 -80 31 -10 44 14 49 88 2 36 6 87 9 113 25 201 25 209 2 225
-24 17 -45 4 -131 -78z m80 -6 c-2 -7 -6 -31 -9 -53 -3 -22 -8 -54 -12 -72
l-6 -32 -42 21 c-22 11 -43 22 -45 24 -4 4 109 124 116 124 1 0 1 -6 -2 -12z"/>
<path d="M3836 1572 c-3 -3 -6 -17 -6 -30 0 -35 -66 -248 -92 -299 -20 -38
-21 -45 -8 -57 43 -40 90 -21 90 37 0 40 20 81 42 85 18 3 44 -36 52 -79 2
-13 7 -41 11 -62 8 -40 44 -73 69 -64 12 5 12 15 -4 64 -10 32 -20 76 -24 98
-6 38 -4 41 33 64 45 27 61 57 61 109 -1 41 -12 60 -50 85 -30 19 -166 58
-174 49z m127 -84 c33 -13 44 -47 27 -88 -15 -36 -59 -51 -107 -37 -34 11 -34
14 -9 85 25 68 19 66 89 40z"/>
<path d="M6125 1545 c-5 -2 -23 -6 -38 -9 -20 -5 -33 -17 -43 -41 -15 -38 -8
-68 26 -112 18 -24 18 -25 0 -66 -37 -81 -17 -155 47 -172 41 -12 72 -6 133
25 31 16 83 36 115 45 l59 18 -25 18 c-52 40 -57 49 -53 94 2 24 -1 47 -7 51
-6 3 -25 -8 -43 -25 -56 -55 -80 -38 -89 62 -3 37 -11 65 -23 78 -22 24 -45
37 -59 34z m37 -60 c14 -30 0 -80 -21 -80 -24 0 -54 51 -47 79 9 36 52 36 68
1z m34 -206 c64 -44 69 -53 38 -78 -34 -27 -66 -27 -99 2 -30 26 -38 59 -23
92 12 27 23 25 84 -16z"/>
<path d="M4443 1419 c-8 -8 -8 -20 -3 -35 9 -22 8 -48 -4 -134 -2 -19 -7 -57
-11 -85 -4 -27 -15 -68 -26 -90 -22 -47 -14 -61 43 -68 39 -5 66 12 53 33 -19
31 12 274 40 317 8 12 15 29 15 38 0 28 -84 47 -107 24z"/>
<path d="M5017 1372 c-9 -9 -36 -74 -60 -143 -25 -69 -55 -145 -67 -168 -22
-44 -20 -75 5 -85 27 -10 41 4 54 54 15 58 17 60 73 64 64 5 85 -7 99 -56 15
-52 31 -67 64 -61 35 7 39 35 12 90 -13 26 -43 102 -67 167 -40 109 -66 156
-88 156 -5 0 -16 -8 -25 -18z m43 -143 c12 -39 19 -77 16 -85 -3 -9 -20 -14
-46 -14 -39 0 -41 1 -37 28 5 30 39 142 43 142 2 0 13 -32 24 -71z"/>
</g>
</svg>
